<?xml version="1.0" standalone="no"?>
<!DOCTYPE svg PUBLIC "-//W3C//DTD SVG 20010904//EN"
 "http://www.w3.org/TR/2001/REC-SVG-20010904/DTD/svg10.dtd">
<svg version="1.0" xmlns="http://www.w3.org/2000/svg"
 width="3135.000000pt" height="1196.000000pt" viewBox="0 0 3135.000000 1196.000000"
 preserveAspectRatio="xMidYMid meet">

<g transform="translate(0.000000,1196.000000) scale(0.100000,-0.100000)"
fill="#000000" stroke="none">
<path d="M5940 11857 l0 -103 113 -12 c219 -23 334 -71 459 -190 102 -97 168
-179 297 -364 l101 -147 -3 -2803 c-2 -2631 -4 -2809 -20 -2906 -41 -239 -106
-389 -221 -510 -39 -40 -99 -91 -135 -112 -126 -75 -345 -130 -513 -130 l-78
0 0 -105 0 -105 1160 0 1160 0 0 105 0 105 -82 0 c-222 0 -462 76 -603 189
-148 120 -243 305 -292 576 -15 82 -17 322 -20 2625 -3 2528 -3 2535 17 2511
11 -13 1006 -1431 2212 -3152 l2191 -3129 84 0 83 0 0 3233 c0 1982 4 3294 10
3392 5 88 17 201 25 250 67 390 261 567 717 657 l108 21 0 104 0 103 -1080 0
-1080 0 0 -103 0 -104 128 -6 c468 -23 708 -249 788 -742 22 -135 32 -786 33
-2039 1 -762 -2 -967 -11 -958 -7 7 -629 898 -1383 1980 l-1371 1967 -1397 3
-1397 2 0 -103z"/>
<path d="M13170 11856 l0 -104 203 -5 c167 -4 215 -8 275 -26 252 -74 367
-220 420 -532 16 -97 17 -292 17 -2969 0 -3036 1 -2959 -46 -3160 -53 -229
-178 -365 -394 -429 -100 -30 -253 -51 -372 -51 l-103 0 0 -105 0 -105 1995 0
1995 0 0 105 0 105 -133 0 c-491 0 -663 123 -734 525 -13 74 -16 207 -20 760
l-4 670 298 200 c355 239 564 393 735 544 638 561 987 1251 930 1838 -40 406
-222 694 -537 849 -311 153 -674 115 -977 -103 -98 -70 -264 -240 -348 -357
-36 -48 -73 -98 -82 -110 -16 -20 -17 36 -18 1053 l0 1073 533 -5 c387 -4 568
-10 664 -21 534 -62 847 -184 1098 -427 218 -211 358 -492 435 -878 23 -116
60 -362 60 -403 0 -4 45 -8 100 -8 l100 0 0 1090 0 1090 -3045 0 -3045 0 0
-104z m2255 -1856 c263 -71 469 -231 696 -544 l79 -108 0 -1379 c0 -759 -3
-1379 -6 -1379 -9 0 -543 362 -669 453 -673 489 -1100 1061 -1227 1647 -19 90
-22 133 -22 305 0 183 3 208 26 296 15 53 37 124 51 158 125 309 395 524 722
575 71 11 271 -3 350 -24z"/>
<path d="M19846 11928 c-3 -18 -42 -490 -86 -1048 -44 -558 -83 -1043 -86
-1077 l-6 -63 90 0 90 0 17 78 c30 142 96 376 142 502 305 843 840 1194 1853
1216 118 2 293 6 388 8 99 3 172 0 172 -5 0 -5 -734 -1612 -1631 -3571 -897
-1960 -1634 -3571 -1636 -3581 -5 -16 142 -17 2990 -17 l2995 0 6 48 c11 82
256 2642 256 2668 l0 25 -92 -3 -92 -3 -31 -155 c-269 -1308 -916 -1955 -2115
-2114 -218 -29 -374 -36 -848 -36 -447 0 -474 1 -469 18 2 9 730 1601 1617
3537 887 1936 1620 3539 1631 3563 l18 42 -2584 0 -2584 0 -5 -32z"/>
<path d="M6545 2570 c-60 -16 -149 -34 -197 -41 l-88 -13 0 -32 0 -31 63 -5
c35 -3 77 -12 93 -19 52 -26 57 -51 62 -318 l5 -244 -39 8 c-139 26 -264 23
-368 -11 -180 -58 -339 -190 -415 -344 -94 -191 -93 -403 2 -585 69 -131 218
-239 364 -265 92 -17 138 -3 313 94 l135 74 3 -85 c3 -83 3 -85 25 -79 73 22
253 66 315 76 72 13 72 13 72 45 l0 32 -70 5 c-83 6 -115 25 -129 75 -7 25
-11 321 -11 866 0 655 -3 827 -12 826 -7 -1 -62 -14 -123 -29z m-277 -780 c67
-16 125 -47 170 -92 l42 -41 0 -357 c0 -411 12 -366 -115 -427 -74 -35 -87
-38 -165 -38 -74 0 -92 4 -139 29 -146 76 -231 240 -231 446 0 149 44 282 121
365 55 60 88 82 152 105 59 22 102 24 165 10z"/>
<path d="M17535 2570 c-60 -16 -149 -34 -197 -41 l-88 -13 0 -33 c0 -33 1 -33
48 -34 68 -1 122 -20 146 -52 19 -26 20 -44 24 -279 l4 -251 -38 8 c-188 36
-334 18 -484 -61 -243 -127 -383 -363 -366 -619 7 -109 26 -179 74 -265 70
-128 198 -224 342 -256 99 -23 144 -11 313 81 76 41 142 75 147 75 6 0 10 -34
10 -80 0 -44 3 -80 6 -80 3 0 36 9 74 21 37 11 127 33 201 48 l134 27 3 31 3
30 -75 5 c-89 6 -121 23 -135 75 -7 25 -11 321 -11 866 0 655 -3 827 -12 826
-7 -1 -62 -14 -123 -29z m-277 -780 c67 -16 128 -49 172 -92 l40 -41 -2 -361
-3 -361 -50 -32 c-290 -190 -595 18 -595 407 0 149 44 282 121 365 55 60 88
82 152 105 59 22 102 24 165 10z"/>
<path d="M24870 2574 c-47 -13 -134 -32 -195 -42 l-110 -19 -3 -30 -3 -30 70
-6 c86 -7 125 -26 140 -68 7 -20 11 -122 11 -272 l0 -239 -27 6 c-16 4 -80 10
-143 13 -99 4 -127 2 -194 -16 -204 -56 -364 -186 -451 -366 -54 -112 -69
-186 -63 -313 11 -216 118 -386 299 -476 82 -41 165 -60 224 -51 48 7 161 59
278 128 l77 46 0 -88 0 -89 77 25 c43 13 137 36 210 50 l133 27 0 31 0 32 -77
6 c-64 5 -80 10 -102 32 l-26 25 -3 855 c-2 804 -3 855 -20 854 -9 -1 -55 -12
-102 -25z m-282 -788 c62 -17 126 -53 165 -93 l27 -29 -2 -370 -3 -369 -88
-45 c-76 -38 -99 -45 -160 -48 -95 -5 -168 22 -240 88 -100 91 -147 215 -147
385 0 172 43 295 133 385 94 94 200 126 315 96z"/>
<path d="M22506 2418 c-3 -46 -10 -146 -16 -224 -15 -206 -16 -194 25 -194 33
0 35 2 51 58 43 150 102 231 188 258 42 14 112 18 409 22 196 2 357 1 357 -2
0 -7 -282 -397 -784 -1085 -202 -277 -370 -510 -373 -517 -3 -8 0 -21 7 -29
11 -13 106 -15 720 -15 l707 0 22 100 22 100 -25 64 c-14 36 -26 69 -26 75 0
24 -17 7 -50 -50 -48 -84 -114 -144 -181 -163 -95 -29 -270 -39 -554 -33 -148
3 -280 9 -293 14 -23 9 -16 20 161 268 101 143 358 500 570 794 322 445 384
537 376 553 -9 17 -37 18 -600 18 l-591 0 -35 35 c-20 20 -45 35 -58 35 -22 0
-24 -5 -29 -82z"/>
<path d="M0 2401 c0 -27 4 -30 43 -36 118 -18 189 -62 229 -142 l23 -48 -1
-570 c0 -581 -7 -703 -39 -765 -18 -35 -66 -68 -110 -75 -110 -16 -105 -14
-105 -45 l0 -30 325 0 325 0 0 30 c0 32 -4 34 -93 44 -70 8 -123 39 -147 86
-31 60 -41 277 -38 779 l3 434 573 -697 573 -696 38 0 38 0 6 713 c3 391 11
747 16 790 6 44 18 93 28 110 23 40 88 74 159 83 51 6 54 8 54 35 l0 29 -325
0 -325 0 0 -29 c0 -28 2 -29 76 -40 114 -17 160 -48 185 -126 18 -59 25 -1167
7 -1144 -7 8 -263 313 -568 677 l-554 662 -198 0 -198 0 0 -29z"/>
<path d="M12320 2396 l0 -33 62 -7 c84 -8 128 -32 153 -81 19 -39 20 -60 20
-710 0 -631 -1 -673 -19 -719 -15 -40 -26 -51 -60 -66 -22 -10 -69 -21 -103
-25 -61 -7 -63 -8 -63 -36 l0 -29 370 0 370 0 0 29 c0 29 -2 30 -57 36 -92 10
-164 36 -187 68 -20 27 -21 43 -24 359 l-3 330 203 -4 c171 -3 208 -6 236 -21
42 -23 69 -68 83 -139 l12 -58 38 0 39 0 0 260 0 260 -39 0 -40 0 -11 -54
c-13 -62 -38 -99 -83 -123 -26 -14 -70 -18 -234 -21 l-203 -4 0 355 c0 342 1
357 19 367 28 15 372 12 447 -3 34 -7 73 -21 88 -30 45 -30 86 -98 114 -189
22 -73 30 -88 47 -88 47 1 48 8 36 157 -6 76 -11 164 -11 196 l0 57 -600 0
-600 0 0 -34z"/>
<path d="M29669 2391 c-35 -34 -39 -44 -39 -87 0 -151 186 -201 250 -68 29 59
20 116 -25 161 -30 30 -39 33 -90 33 -53 0 -60 -3 -96 -39z"/>
<path d="M20516 1898 c-3 -13 -24 -103 -48 -200 -42 -172 -43 -177 -23 -182
44 -12 53 -6 90 65 47 91 89 137 145 163 39 18 69 21 229 24 152 3 182 2 175
-10 -88 -147 -395 -613 -567 -861 -89 -128 -108 -162 -103 -182 l6 -25 449 0
449 0 17 43 c32 79 105 280 102 282 -1 2 -16 10 -33 18 l-32 16 -38 -65 c-21
-35 -63 -89 -94 -118 -81 -77 -117 -86 -352 -86 -103 0 -188 3 -188 6 0 9 154
248 441 686 168 256 226 352 222 367 -5 21 -9 21 -354 21 -363 0 -394 3 -428
43 -20 25 -60 22 -65 -5z"/>
<path d="M2429 1870 c-146 -47 -355 -167 -393 -225 -44 -68 17 -155 108 -155
43 0 54 15 86 114 43 132 127 189 241 165 105 -23 170 -116 184 -266 l7 -71
-83 -40 c-46 -22 -142 -61 -214 -87 -208 -73 -212 -75 -254 -105 -22 -17 -53
-49 -68 -72 -24 -35 -29 -54 -31 -124 -4 -72 -1 -89 23 -143 73 -162 261 -242
401 -169 28 15 88 52 134 82 46 31 84 56 85 56 2 0 15 -25 29 -55 29 -59 59
-85 119 -105 38 -12 39 -11 158 60 l119 71 -15 28 -14 29 -56 -16 c-53 -15
-57 -15 -83 5 -56 41 -57 48 -62 438 -6 391 -8 402 -67 485 -32 44 -102 93
-153 108 -75 22 -115 20 -201 -8z m231 -739 l0 -200 -33 -25 c-58 -45 -148
-80 -202 -80 -61 0 -105 23 -149 77 -27 34 -31 47 -34 110 -3 82 11 116 71
161 33 26 310 154 335 155 9 1 12 -45 12 -198z"/>
<path d="M3505 1872 c-33 -13 -115 -38 -182 -55 -118 -29 -123 -32 -123 -57 0
-23 5 -26 62 -37 109 -21 103 8 106 -451 2 -267 0 -409 -8 -434 -13 -45 -50
-68 -125 -77 -48 -6 -50 -8 -53 -38 l-3 -33 315 0 316 0 0 29 c0 32 -14 41
-61 41 -53 0 -117 21 -141 47 -23 25 -23 26 -26 334 l-3 310 37 69 c21 40 58
90 89 119 73 69 120 70 198 5 16 -13 38 -24 50 -24 57 0 117 71 117 138 0 38
-36 90 -80 114 -43 23 -116 20 -175 -7 -54 -26 -152 -127 -197 -205 l-38 -65
0 153 c0 83 -3 151 -7 151 -5 -1 -35 -13 -68 -27z"/>
<path d="M4679 1889 c-242 -36 -450 -232 -505 -475 -22 -103 -16 -263 15 -354
64 -184 207 -320 396 -376 82 -24 240 -24 320 0 272 82 435 310 435 609 0 118
-18 196 -68 292 -45 88 -154 199 -237 242 -103 54 -246 79 -356 62z m175 -113
c152 -74 239 -273 239 -541 -1 -243 -61 -391 -187 -458 -63 -33 -183 -31 -252
5 -149 78 -245 289 -246 543 -1 122 13 204 48 283 78 177 240 245 398 168z"/>
<path d="M7545 1889 c-78 -12 -116 -24 -200 -68 -134 -69 -254 -217 -299 -371
-26 -85 -31 -231 -12 -320 66 -315 373 -519 685 -456 272 55 445 248 482 537
26 202 -40 393 -183 529 -119 113 -307 173 -473 149z m172 -111 c97 -45 178
-158 219 -304 25 -87 30 -327 10 -424 -43 -205 -162 -314 -324 -297 -151 16
-265 137 -324 342 -19 67 -22 105 -23 230 0 100 5 167 14 200 65 231 246 338
428 253z"/>
<path d="M15430 1878 c-53 -23 -190 -62 -273 -78 -54 -11 -58 -13 -55 -38 3
-22 10 -28 58 -40 30 -7 66 -24 80 -38 l25 -24 3 -395 c3 -427 1 -446 -51
-479 -13 -9 -51 -20 -83 -24 -57 -7 -59 -8 -62 -39 l-3 -33 296 0 296 0 -3 32
c-3 31 -6 33 -49 39 -54 8 -77 19 -104 49 -19 21 -20 39 -23 399 l-3 377 58
43 c87 65 157 95 236 99 126 8 208 -49 241 -167 23 -81 24 -683 1 -737 -15
-37 -62 -64 -109 -64 -42 0 -56 -10 -56 -41 l0 -29 286 0 285 0 -3 32 c-3 31
-6 33 -53 40 -27 4 -59 12 -71 19 -46 24 -49 42 -55 444 -6 424 -8 437 -77
535 -73 106 -235 157 -364 116 -29 -10 -112 -57 -185 -106 l-132 -89 -3 108
-3 108 -45 -19z"/>
<path d="M19812 1889 c-35 -4 -92 -21 -127 -38 -239 -111 -274 -403 -68 -556
44 -32 81 -52 252 -132 110 -52 163 -124 163 -223 0 -200 -233 -256 -397 -95
-50 49 -111 152 -128 215 -4 17 -12 21 -34 18 -25 -3 -28 -7 -31 -47 -4 -51
22 -228 39 -264 12 -27 86 -65 169 -88 61 -17 212 -17 280 0 127 32 232 109
280 206 21 42 25 64 25 145 0 111 -17 154 -92 227 -43 41 -89 66 -312 171 -72
33 -146 106 -160 156 -25 92 31 192 119 216 123 33 267 -62 325 -214 17 -43
18 -44 47 -34 30 11 30 12 24 62 -11 85 -47 224 -60 235 -37 31 -212 53 -314
40z"/>
<path d="M25675 1871 c-33 -13 -118 -38 -188 -55 -122 -30 -128 -32 -125 -55
3 -21 11 -26 62 -36 75 -15 102 -44 111 -117 4 -29 5 -214 3 -410 -3 -343 -4
-358 -24 -385 -21 -28 -67 -48 -136 -58 -34 -5 -38 -9 -38 -35 l0 -30 320 0
320 0 0 30 c0 31 4 30 -109 45 -55 7 -95 30 -112 64 -10 19 -14 103 -17 313
l-4 288 27 57 c33 74 98 159 138 184 55 33 125 21 171 -30 40 -44 116 -15 148
56 24 54 18 99 -17 137 -104 112 -270 50 -408 -153 l-52 -76 -5 145 -5 145
-60 -24z"/>
<path d="M30685 1870 c-140 -48 -318 -150 -370 -212 -41 -48 -28 -110 31 -149
32 -21 75 -25 104 -9 12 6 26 34 36 68 20 70 55 141 81 164 74 67 188 61 269
-14 51 -47 78 -112 88 -210 6 -64 5 -68 -19 -84 -40 -26 -189 -88 -335 -138
-227 -79 -292 -143 -292 -291 0 -233 235 -394 432 -295 32 16 94 54 137 83
l79 54 27 -58 c29 -63 71 -96 131 -106 31 -5 50 3 150 63 l115 68 -15 29 c-11
21 -20 27 -32 22 -9 -4 -38 -10 -65 -13 -52 -5 -79 10 -100 58 -7 16 -13 156
-17 385 -5 343 -7 363 -28 417 -42 105 -144 181 -262 193 -45 5 -71 0 -145
-25z m245 -735 l0 -204 -47 -32 c-25 -18 -68 -40 -95 -51 -150 -57 -281 29
-281 184 0 65 23 109 81 149 31 21 315 156 335 158 4 1 7 -91 7 -204z"/>
<path d="M19050 1879 c-31 -7 -137 -18 -317 -35 -61 -5 -63 -7 -63 -34 0 -26
2 -28 62 -34 34 -4 76 -13 93 -21 58 -23 60 -41 60 -434 l0 -355 -68 -46 c-92
-63 -156 -85 -242 -85 -117 1 -186 53 -220 168 -12 41 -15 127 -15 465 l0 415
-47 -7 c-27 -3 -93 -11 -148 -16 -192 -20 -185 -18 -185 -49 0 -26 4 -29 48
-35 67 -9 95 -26 109 -66 8 -24 12 -139 12 -373 1 -385 8 -439 68 -530 38 -59
107 -110 168 -126 56 -15 153 -14 209 3 55 17 167 81 248 143 31 23 59 43 62
43 3 0 6 -45 6 -100 0 -62 4 -100 10 -100 6 0 54 13 108 29 53 15 141 37 195
46 l97 19 0 33 0 33 -64 0 c-77 0 -110 11 -128 42 -10 18 -14 136 -18 518 l-5
496 -35 -7z"/>
<path d="M26745 1871 c-196 -56 -360 -221 -419 -421 -27 -88 -32 -233 -12
-323 47 -211 197 -376 401 -440 104 -32 262 -30 365 6 90 32 195 102 255 170
54 62 109 170 131 257 21 81 23 247 5 320 -50 207 -220 383 -417 434 -82 21
-231 20 -309 -3z m244 -92 c163 -72 265 -319 248 -601 -13 -206 -71 -334 -179
-394 -46 -25 -63 -29 -133 -29 -67 0 -88 5 -130 27 -142 74 -231 260 -242 503
-7 149 8 241 52 332 81 167 230 230 384 162z"/>
<path d="M29781 1859 c-46 -15 -128 -39 -182 -51 -94 -21 -99 -23 -99 -48 0
-24 5 -27 59 -38 120 -25 125 -45 119 -542 -4 -392 -5 -397 -113 -415 -85 -13
-85 -14 -85 -45 l0 -30 300 0 300 0 0 29 c0 32 -5 35 -82 46 -65 9 -94 34
-107 96 -7 32 -11 226 -11 539 0 270 -3 490 -7 489 -5 0 -46 -14 -92 -30z"/>
<path d="M13855 1864 c-55 -7 -130 -15 -167 -19 -66 -6 -68 -7 -68 -35 0 -26
3 -29 51 -35 35 -5 61 -16 83 -35 l31 -28 6 -384 c6 -421 8 -438 71 -532 35
-53 100 -100 162 -117 22 -6 77 -9 122 -7 73 3 90 7 168 47 47 25 118 69 157
98 39 29 72 53 75 53 2 0 4 -45 4 -100 0 -117 -7 -112 114 -75 63 19 262 65
282 65 2 0 4 16 4 35 l0 35 -69 0 c-59 0 -74 4 -98 24 l-28 24 -3 502 -3 503
-37 -7 c-57 -9 -197 -24 -294 -31 -88 -7 -88 -7 -88 -34 0 -26 3 -28 75 -39
84 -13 108 -25 127 -61 19 -38 25 -726 6 -748 -27 -33 -135 -94 -201 -115
-118 -35 -231 -7 -284 71 -51 75 -54 105 -51 549 l3 412 -25 -1 c-14 -1 -70
-8 -125 -15z"/>
<path d="M8340 1830 c0 -27 4 -30 41 -36 57 -9 100 -42 126 -94 21 -45 225
-655 303 -908 l41 -133 40 3 41 3 49 130 c160 422 273 705 279 698 7 -8 94
-225 241 -603 l87 -225 38 0 39 0 62 175 c34 96 107 306 163 465 125 355 160
431 215 462 22 13 53 23 69 23 39 0 97 -34 125 -75 41 -61 358 -876 383 -987
10 -48 -16 -122 -100 -276 -55 -101 -68 -117 -211 -242 -50 -45 -59 -78 -34
-127 36 -69 149 -107 192 -64 11 11 31 59 46 108 41 133 113 312 345 859 318
747 335 778 454 805 52 11 56 14 56 41 l0 28 -250 0 -250 0 0 -28 c0 -27 4
-30 55 -41 31 -7 68 -23 83 -36 26 -22 26 -25 15 -68 -29 -106 -243 -679 -262
-699 -6 -7 -261 664 -274 719 -8 34 27 71 79 84 39 10 44 14 44 40 l0 29 -475
0 -475 0 0 -30 c0 -26 4 -30 38 -35 142 -24 152 -42 113 -196 -35 -140 -170
-581 -181 -592 -8 -9 -47 87 -237 583 l-99 255 -38 0 -38 0 -99 -270 c-197
-538 -212 -576 -219 -568 -16 16 -211 639 -217 689 -5 47 -3 53 18 68 13 8 48
20 77 26 48 11 52 14 52 41 l0 29 -275 0 -275 0 0 -30z"/>
<path d="M27540 1832 c0 -26 5 -30 59 -45 78 -22 97 -47 154 -207 42 -115 192
-576 268 -818 l32 -103 39 3 39 3 48 125 c125 331 277 708 283 702 6 -7 260
-649 305 -772 20 -53 22 -55 60 -58 l40 -3 83 243 c85 249 245 694 274 760 28
64 73 106 132 124 49 14 54 18 54 45 l0 29 -245 0 -245 0 0 -29 c0 -28 3 -30
58 -41 112 -24 132 -47 112 -135 -25 -112 -185 -633 -199 -648 -7 -7 -175 411
-292 726 l-44 117 -36 0 -36 0 -153 -412 c-84 -227 -156 -419 -160 -427 -9
-18 -230 644 -232 694 -2 45 13 60 70 75 26 7 55 14 65 17 11 3 17 14 17 34
l0 29 -275 0 -275 0 0 -28z"/>
</g>
</svg>
