<?xml version="1.0" standalone="no"?>
<!DOCTYPE svg PUBLIC "-//W3C//DTD SVG 20010904//EN"
 "http://www.w3.org/TR/2001/REC-SVG-20010904/DTD/svg10.dtd">
<svg version="1.0" xmlns="http://www.w3.org/2000/svg"
 width="1946.000000pt" height="776.000000pt" viewBox="0 0 1946.000000 776.000000"
 preserveAspectRatio="xMidYMid meet">

<g transform="translate(0.000000,776.000000) scale(0.100000,-0.100000)"
fill="#000000" stroke="none">
<path d="M0 7657 l0 -103 113 -12 c219 -23 334 -71 458 -189 93 -89 179 -195
307 -380 l92 -133 0 -2677 c0 -1627 -4 -2741 -10 -2839 -15 -247 -54 -415
-128 -559 -53 -101 -173 -219 -277 -272 -138 -71 -319 -113 -482 -113 l-73 0
0 -105 0 -105 1160 0 1160 0 0 105 0 105 -82 0 c-110 0 -252 24 -363 61 -294
98 -455 307 -532 689 -16 78 -17 280 -20 2630 -2 1638 0 2541 6 2535 6 -6
1000 -1423 2209 -3150 l2199 -3140 87 -3 86 -3 3 3358 c3 3588 1 3417 52 3620
81 317 281 477 692 555 l113 21 0 103 0 104 -1080 0 -1080 0 0 -105 0 -105 83
0 c99 0 238 -22 327 -51 113 -37 180 -78 271 -169 98 -96 148 -186 193 -342
61 -210 59 -170 65 -1743 3 -792 5 -1442 4 -1444 -2 -2 -5 -2 -6 0 -2 2 -624
894 -1381 1982 l-1378 1977 -1394 0 -1394 0 0 -103z"/>
<path d="M7220 7656 l0 -104 203 -5 c163 -3 217 -8 280 -25 259 -70 383 -237
429 -582 19 -142 19 -5689 0 -5869 -53 -495 -243 -666 -767 -690 l-140 -6 -3
-103 -3 -102 2001 0 2001 0 -3 103 -3 102 -175 6 c-303 11 -434 51 -542 167
-53 56 -77 99 -107 192 -52 157 -54 197 -58 920 l-4 675 253 170 c314 211 503
346 635 453 560 453 931 988 1042 1504 78 364 26 728 -141 983 -128 195 -327
336 -555 392 -93 23 -322 23 -415 0 -266 -66 -503 -240 -714 -525 -48 -64 -91
-121 -96 -126 -4 -6 -8 473 -8 1063 l0 1073 533 -5 c516 -5 587 -9 822 -42
305 -44 575 -138 777 -271 96 -63 262 -229 327 -326 155 -233 269 -576 311
-938 6 -52 13 -110 16 -127 l5 -33 99 0 100 0 0 1090 0 1090 -3050 0 -3050 0
0 -104z m2275 -1861 c180 -52 304 -125 449 -265 97 -93 183 -195 261 -309 l50
-73 4 -1379 c2 -758 0 -1379 -4 -1379 -12 0 -589 391 -720 489 -342 255 -621
534 -827 827 -193 275 -331 607 -369 890 -18 140 -7 387 24 505 53 201 141
354 280 485 129 122 275 197 444 229 117 22 294 14 408 -20z"/>
<path d="M13821 6712 c-46 -576 -86 -1075 -89 -1109 l-5 -63 90 0 90 0 18 88
c53 260 151 546 260 767 101 204 186 325 321 460 255 257 587 399 1074 461
110 14 887 38 899 28 2 -2 -734 -1616 -1636 -3586 l-1640 -3583 2995 -3 c1648
-1 2996 -1 2998 1 2 2 264 2702 264 2725 0 9 -25 12 -93 12 l-93 0 -18 -98
c-31 -161 -92 -401 -144 -559 -347 -1047 -1041 -1557 -2237 -1643 -87 -6 -345
-10 -611 -8 l-461 3 1508 3295 c830 1812 1567 3422 1638 3578 l129 282 -2586
0 -2587 0 -84 -1048z"/>
</g>
</svg>
